# xmcd
#
# Track frame offsets:
#	150
#	15404
#	29289
#	44694
#	60348
#	73764
#	88361
#	104840
#	120087
#	134091
#	146397
#
# Disc length: 2155 seconds
#
# Revision: 1
# Processed by: cddbd v1.5.2PL0 Copyright (c) Steve Scherf et al.
# Submitted via: audiograbber 1.83.01
#
DISCID=9c08690b
DTITLE=Rob Russell - Turnin' Heads
DYEAR=2008
DGENRE=Canadian Country
TTITLE0=Down a Road You've Never Been
TTITLE1=Cowgirl Love
TTITLE2=Hard to Be an Outlaw
TTITLE3=Too Damn Young
TTITLE4=Good Ol' Bay Boy Better
TTITLE5=Good Boots
TTITLE6=Mr Rodeo - Remix
TTITLE7=Too Much Information
TTITLE8=Let You Go
TTITLE9=Don't Want to Talk About It
TTITLE10=Just Walk Away
EXTD=Artist is from Calgary Canada
EXTT0=
EXTT1=
EXTT2=
EXTT3=
EXTT4=
EXTT5=
EXTT6=
EXTT7=
EXTT8=
EXTT9=
EXTT10=
PLAYORDER=
